<svg width="24" height="23" viewBox="0 0 24 23" fill="none" xmlns="http://www.w3.org/2000/svg">
<path d="M4.86219 16.837L4.86967 16.8452L4.87869 16.8388C5.84058 16.151 6.9157 15.6088 8.10413 15.2119C9.29235 14.8152 10.5372 14.6168 11.8387 14.6168C13.1403 14.6168 14.3851 14.8152 15.5733 15.2119C16.7618 15.6088 17.8369 16.151 18.7988 16.8388L18.8078 16.8452L18.8153 16.837C19.4772 16.1121 19.9925 15.29 20.3612 14.3706C20.73 13.4511 20.9144 12.4697 20.9144 11.4267C20.9144 9.07524 20.0302 7.07274 18.2623 5.41987C16.4945 3.76704 14.353 2.94064 11.8387 2.94064C9.32445 2.94064 7.18301 3.76704 5.41517 5.41987C3.64729 7.07274 2.76306 9.07524 2.76306 11.4267C2.76306 12.4697 2.94743 13.4511 3.31625 14.3706C3.68499 15.29 4.20031 16.1121 4.86219 16.837ZM11.8387 12.4734C10.7277 12.4734 9.79142 12.117 9.02919 11.4043C8.267 10.6917 7.8861 9.81677 7.8861 8.77871C7.8861 7.74065 8.267 6.8657 9.02919 6.15309C9.79142 5.44045 10.7277 5.08403 11.8387 5.08403C12.9498 5.08403 13.886 5.44045 14.6483 6.15309C15.4105 6.8657 15.7914 7.74065 15.7914 8.77871C15.7914 9.81677 15.4105 10.6917 14.6483 11.4043C13.886 12.117 12.9498 12.4734 11.8387 12.4734ZM11.8387 22.0061C10.2731 22.0061 8.80191 21.7284 7.42511 21.1729C6.04809 20.6174 4.85044 19.8635 3.83203 18.9114C2.81362 17.9592 2.00738 16.8396 1.41327 15.5523C0.819283 14.2653 0.522266 12.8902 0.522266 11.4267C0.522266 9.96322 0.819283 8.58806 1.41327 7.30107C2.00738 6.01383 2.81362 4.89418 3.83203 3.94202C4.85044 2.98987 6.04809 2.23599 7.42511 1.68046C8.80191 1.12501 10.2731 0.847247 11.8387 0.847247C13.4044 0.847247 14.8756 1.12501 16.2524 1.68046C17.6294 2.23599 18.827 2.98987 19.8454 3.94202C20.8639 4.89418 21.6701 6.01383 22.2642 7.30107C22.8582 8.58806 23.1552 9.96322 23.1552 11.4267C23.1552 12.8902 22.8582 14.2653 22.2642 15.5523C21.6701 16.8396 20.8639 17.9592 19.8454 18.9114C18.827 19.8635 17.6294 20.6174 16.2524 21.1729C14.8756 21.7284 13.4044 22.0061 11.8387 22.0061Z" fill="white" stroke="white" stroke-width="0.025"/>
</svg>
