<svg width="26" height="25" viewBox="0 0 26 25" fill="none" xmlns="http://www.w3.org/2000/svg">
<mask id="mask0_179_2524" style="mask-type:alpha" maskUnits="userSpaceOnUse" x="0" y="0" width="26" height="25">
<rect x="0.5" y="1.45314" width="24.5901" height="22.9253" fill="#D9D9D9" stroke="white"/>
</mask>
<g mask="url(#mask0_179_2524)">
<path d="M11.7405 5.92534V1.96279H13.848V5.92534H11.7405ZM18.8186 8.66218L17.3707 7.30845L20.338 4.4598L21.8125 5.863L18.8186 8.66218ZM20.2705 11.9317H24.5106V13.9005H20.2705V11.9317ZM11.7405 23.8693V19.9068H13.848V23.8693H11.7405ZM5.25041 4.48447L8.24417 7.28348L6.76994 8.61258L3.74959 5.86304L5.25041 4.48447ZM20.3114 21.3722L17.3706 18.5237L18.7921 17.1947L21.8125 19.9195L20.3114 21.3722ZM1.07793 13.9005V11.9317H5.31795V13.9005H1.07793ZM5.25056 21.3724L3.77594 19.9691L6.74354 17.1946L7.5079 17.8599L7.50807 17.8601L8.27084 18.5487L5.25056 21.3724ZM12.7942 18.8849C11.0202 18.8849 9.51273 18.3045 8.27119 17.1437C7.02969 15.983 6.40921 14.574 6.40921 12.9161C6.40921 11.2581 7.02969 9.84916 8.27119 8.68842C9.51273 7.52765 11.0202 6.94723 12.7942 6.94723C14.5683 6.94723 16.0758 7.52765 17.3173 8.68842C18.5588 9.84916 19.1793 11.2581 19.1793 12.9161C19.1793 14.574 18.5588 15.983 17.3173 17.1437C16.0758 18.3045 14.5683 18.8849 12.7942 18.8849Z" fill="white" stroke="white" stroke-width="0.025"/>
</g>
</svg>
