<svg width="25" height="23" viewBox="0 0 25 23" fill="none" xmlns="http://www.w3.org/2000/svg">
<mask id="mask0_179_2527" style="mask-type:alpha" maskUnits="userSpaceOnUse" x="0" y="0" width="25" height="23">
<rect x="1.16016" y="1.14784" width="22.8841" height="21.3303" fill="#D9D9D9" stroke="white"/>
</mask>
<g mask="url(#mask0_179_2527)">
<path d="M18.5741 16.1379H20.552V17.9582H4.65421V16.1379H6.63206H6.64456V16.1254V9.66665C6.64456 8.39325 7.05815 7.26196 7.88561 6.2723C8.71308 5.28262 9.78875 4.63428 11.1132 4.3273L11.1228 4.32506V4.31513V3.66925C11.1228 3.2884 11.2664 2.9649 11.5542 2.69808C11.842 2.43122 12.1914 2.29774 12.6031 2.29774C13.0148 2.29774 13.3641 2.43122 13.652 2.69808C13.9398 2.9649 14.0833 3.2884 14.0833 3.66925V4.31513V4.32506L14.093 4.3273C15.4174 4.63428 16.4931 5.28262 17.3206 6.2723C18.148 7.26196 18.5616 8.39325 18.5616 9.66665V16.1254V16.1379H18.5741ZM12.6031 20.7263C12.0588 20.7263 11.5933 20.5467 11.2059 20.1875C10.8218 19.8314 10.6285 19.4044 10.6253 18.9059H14.5809C14.5777 19.4044 14.3844 19.8314 14.0003 20.1875C13.6129 20.5467 13.1474 20.7263 12.6031 20.7263ZM2.66388 9.65415C2.66587 8.12331 3.03438 6.71871 3.76933 5.4401C4.50456 4.16102 5.49107 3.09967 6.72899 2.25598L7.88276 3.71262C6.89125 4.38909 6.10165 5.24145 5.51407 6.26961C4.92614 7.2984 4.63121 8.42666 4.62922 9.65415H2.66388ZM20.577 9.65415C20.575 8.42666 20.28 7.2984 19.6921 6.26961C19.1045 5.24145 18.3149 4.38909 17.3234 3.71262L18.4772 2.25598C19.7151 3.09967 20.7016 4.16102 21.4368 5.4401C22.1718 6.71871 22.5403 8.12331 22.5423 9.65415H20.577Z" fill="white" stroke="white" stroke-width="0.025"/>
</g>
</svg>
