<svg width="21" height="22" viewBox="0 0 21 22" fill="none" xmlns="http://www.w3.org/2000/svg">
<mask id="mask0_179_3445" style="mask-type:alpha" maskUnits="userSpaceOnUse" x="0" y="0" width="21" height="22">
<rect y="0.839294" width="20.3214" height="20.3214" fill="#D9D9D9"/>
</mask>
<g mask="url(#mask0_179_3445)">
<path d="M17.7811 6.76639V16.9271C17.7811 17.3928 17.6153 17.7915 17.2837 18.1231C16.952 18.4547 16.5534 18.6206 16.0877 18.6206H4.23349C3.76779 18.6206 3.36913 18.4547 3.03749 18.1231C2.70586 17.7915 2.54004 17.3928 2.54004 16.9271V5.07294C2.54004 4.60724 2.70586 4.20857 3.03749 3.87694C3.36913 3.5453 3.76779 3.37949 4.23349 3.37949H14.3942L17.7811 6.76639ZM16.0877 7.48611L13.6745 5.07294H4.23349V16.9271H16.0877V7.48611ZM10.1606 16.0804C10.8662 16.0804 11.4659 15.8334 11.9599 15.3395C12.4538 14.8456 12.7008 14.2458 12.7008 13.5402C12.7008 12.8346 12.4538 12.2348 11.9599 11.7409C11.4659 11.247 10.8662 11 10.1606 11C9.45497 11 8.85521 11.247 8.36128 11.7409C7.86736 12.2348 7.6204 12.8346 7.6204 13.5402C7.6204 14.2458 7.86736 14.8456 8.36128 15.3395C8.85521 15.8334 9.45497 16.0804 10.1606 16.0804ZM5.08022 9.30657H12.7008V5.91966H5.08022V9.30657Z" fill="white"/>
</g>
</svg>
